<svg xmlns="http://www.w3.org/2000/svg" xmlns:xlink="http://www.w3.org/1999/xlink" width="148" height="148" viewBox="0 0 148 148">
  <defs>
    <clipPath id="clip-path">
      <circle id="Ellipse_46" data-name="Ellipse 46" cx="74" cy="74" r="74" transform="translate(5395 2017)" fill="#1b1d1c"/>
    </clipPath>
  </defs>
  <g id="Icon_for_mobile" data-name="Icon for mobile" transform="translate(-5395 -2017)">
    <circle id="Ellipse_45" data-name="Ellipse 45" cx="74" cy="74" r="74" transform="translate(5395 2017)" fill="#1b1d1c"/>
    <g id="Mask_Group_10" data-name="Mask Group 10" clip-path="url(#clip-path)">
      <g id="Group_10575" data-name="Group 10575" transform="translate(5364.886 2042.734)">
        <path id="Path_1" data-name="Path 1" d="M583.776,420.955c-.692-11.6-8.134-20.941-8.653-22.326s-.519-12.634-1.384-20.422c-.757-6.816-5.756-11.113-6.993-12.08a.627.627,0,0,1-.243-.554c.193-2.125,1.068-13.6-1.591-22.672-2.9-9.882-10.991-13.725-16.691-14.833a.641.641,0,0,1-.412-.291c-1.964-2.978-9-1.047-10.231-.681a.625.625,0,0,1-.374-.007c-1.371-.454-9.868-3.2-15.429-3.395l-.169-.029c-.7-.281-10.422-.386-13.3,1.948a.611.611,0,0,1-.281.132l-1.324.233a.638.638,0,0,1-.739-.588c-.152-1.592-3.326-5.043-29.183-3.3-5.612.41-7.277.769-7.763.964a.618.618,0,0,1-.515-.013c-1.15-.589-5.167-2.621-8.771-4.169-.161.176-.322.353-.48.538-10.1-2.755-13.244.315-13.849,1.084a.6.6,0,0,1-.341.216,54.975,54.975,0,0,0-17.495,7.871c-8.682,5.995-11.419,17.729-11.871,29.511a.627.627,0,0,1-.252.474c-5.747,4.4-5.59,20.469-4.987,27.161a.6.6,0,0,1-.074.343,8.084,8.084,0,0,0-.615,5.592.621.621,0,0,1-.111.532c-1.041,1.363-6.009,8.529-7.313,22.689-1.334,14.484,2.559,19.037,3.236,19.711a.6.6,0,0,1,.148.23c.592,1.649,6.414,17.791,10.759,26.9a.586.586,0,0,1,.047.141c.57,2.841,1.209,5.473,1.872,7.88h0l0,.013c.063.227.126.449.189.672.041.143.081.286.121.428.064.221.128.438.191.655.04.134.079.267.118.4.066.219.131.438.2.653.035.114.069.227.105.34q.362,1.176.724,2.263c.021.064.043.131.064.2.073.218.146.431.218.643l.087.256c.073.21.145.417.218.622.026.074.052.146.078.22.075.211.149.421.224.626l.029.08q.382,1.05.746,1.985c.018.044.036.091.053.135.071.182.141.359.211.533.023.058.046.114.068.171.069.171.137.341.2.506.015.039.031.076.046.115q.344.839.656,1.557c.008.018.016.037.024.054.062.144.123.281.183.417l.055.124.166.372.056.123.158.348c.006.013.012.024.017.037q.256.556.468.992c.019.039.038.08.057.118l.1.21.056.113.092.184.044.088c.094.185.173.339.236.461.014.027.028.054.041.078l.039.076.036.066.021.041.024.046c.014.027.025.045.025.045s1.459,4.8,2.71,4.8,4.586-1.46,5.211-1.669,8.547-2.293,9.172-3.543c.507-1.012,2.38-1.752,3.074-2a.617.617,0,0,0,.371-.348c.2-.475.623-1.52.933-2.449.351-1.054-1.668-5.814-2.31-7.281a.624.624,0,0,1,.174-.736c.368-.3.986-.8,1.719-1.363.829-.633.786-5.735.428-6.167-.186-.225-.41-.478-.657-.749h0c-.109-.119-.224-.242-.341-.367l-.062-.066c-.1-.111-.211-.222-.321-.336l-.121-.125c-.1-.1-.194-.2-.295-.3l-.119-.121-.314-.318-.115-.115c-.112-.113-.226-.226-.34-.339l-.095-.095-.4-.4-.032-.031c-.679-.669-1.35-1.319-1.92-1.871-.018-.018-.035-.035-.054-.052l-.21-.2-.214-.209-.114-.111-.186-.182-.112-.11-.243-.241c-1.2-1.2-4.022-1.277-9.618-1.467a.633.633,0,0,1-.611-.675c.236-3.017-.43-4.419-2.045-9.63a.63.63,0,0,1,.021-.437c2.549-5.875,6.63-18.955,7.042-27.607.405-8.505-.764-14.256-2.933-19.355a.626.626,0,0,1,.2-.742c5.387-4.223,8.867-13.339,9.987-16.621a.627.627,0,0,1,1.106-.161,66.109,66.109,0,0,0,9.158,10.233c6.331,5.78,14.542,10.217,17.817,13.836a.622.622,0,0,1,.126.6c-1.335,4.382-2.585,15.475-.628,18.858a.644.644,0,0,1,.06.557c-2.311,6.134-3.658,16.844-3.82,18.185a.6.6,0,0,1-.093.257c-.119.185-.371.58-.719,1.141q2.837-.544,5.69-1.008l-.146.652c-1.906.315-3.808.647-5.7,1.013a.624.624,0,0,0-.42.29,86.944,86.944,0,0,0-6.8,13.588c-2.459,6.637-1.7,10.489-1.468,11.369a.612.612,0,0,1-.032.4c-.861,2-7.723,18.142-10.628,30.818a68.44,68.44,0,0,0-1.128,25.666c.282,2.256-.846,6.487-2.82,11.564-1.825,4.692-4.614,11.8-5.026,12.843a.6.6,0,0,1-.155.227,136.807,136.807,0,0,0-9.486,10.622c-7.333,8.743-7.9,13.82-5.642,26.512,2.246,12.638,11.765,4.023,30.78-.785a.632.632,0,0,0,.38-.269c4.075-6.366,4.843-19.212,4.932-21.015a.607.607,0,0,1,.148-.371,34.086,34.086,0,0,0,5.994-10.052.633.633,0,0,1,.279-.34c2.892-1.761,5.733-10.022,6.411-12.1a.625.625,0,0,1,.616-.435,4.872,4.872,0,0,0,2.638-.6c1.41-.847,1.128-3.385,4.795-9.589a114.027,114.027,0,0,0,13.217-31.153.608.608,0,0,1,.146-.268c8.762-9.354,12.99-21.175,13.4-22.353a.6.6,0,0,1,.107-.19c.379-.451,2.178-2.239,4.636,1.107a.655.655,0,0,1,.112.253c3.8,18.834,13.214,35.07,14.019,36.435a.569.569,0,0,1,.074.2A69.914,69.914,0,0,0,527.4,531.72a103.871,103.871,0,0,0,9.4,18.332.618.618,0,0,1,.059.583,17.774,17.774,0,0,0-.995,8.443,40.011,40.011,0,0,0,1.92,8.88.6.6,0,0,1,.031.3,159.887,159.887,0,0,1-3.361,16.2c-2.256,8.462-.847,9.025,5.64,22.846s24.82,3.667,27.641-12.692c2.782-16.133-2.667-25.682-6.335-31.623a.617.617,0,0,1-.055-.525c1.643-4.919-.55-11.329-.9-12.291a.579.579,0,0,1-.034-.255c.052-.638.266-3.575.271-8.439a.627.627,0,0,1,.085-.315c1.672-2.888,3.54-9.3,1.043-33.985a153.271,153.271,0,0,0-3.462-20.215.625.625,0,0,1,.767-.754c2.438.651,5.861,1.216,6.663,1.345a.621.621,0,0,1,.3.138c.559.47,2.774,2.268,3.678,1.966,1.027-.342,3.241-1.023,3.79-3.551a.527.527,0,0,1,.057-.152c2.793-4.891,3.854-20.083,3.936-21.312a.573.573,0,0,1,.027-.145,76.043,76.043,0,0,0,1.879-10.127.348.348,0,0,1,.006-.036C582.047,441.715,584.468,432.545,583.776,420.955Zm-25.386,46.38a6.965,6.965,0,0,0-4.213,2.523.631.631,0,0,1-1.075-.186c-3.073-8.214-6.42-14.577-9.244-17.933a.588.588,0,0,1-.133-.27c-.176-.877-.364-2.265-.553-3.972a.643.643,0,0,0-.387-.523,31.565,31.565,0,0,0-6.285-1.788c0-.186,0-.378.006-.57a44.859,44.859,0,0,1,4.375,1.071q.626.189,1.24.41a.626.626,0,0,0,.837-.65c-.637-6.483-1.248-15.845-1.453-21.035a.593.593,0,0,1,.062-.285c1.535-3.277-.889-15.44-3.36-21.366a.6.6,0,0,1-.011-.44c1.651-4.609,2.185-10.177,2.852-15.911a.629.629,0,0,1,1.209-.161,54.072,54.072,0,0,0,9.536,14.644.621.621,0,0,1,.089.719,24.962,24.962,0,0,0-2.549,12.074c.173,7.788,2.769,16.614,5.712,20.769a60.14,60.14,0,0,0,7.1,7.98.613.613,0,0,1,.191.382,155.749,155.749,0,0,1,1.015,18.127h0c0,.055,0,.11,0,.164a8.165,8.165,0,0,0-4.423,5.718A.605.605,0,0,1,558.39,467.334Z" transform="translate(-402.065 -257.906)" fill="none" stroke="#77eedf" stroke-miterlimit="10" stroke-width="1"/>
        <path id="Path_2" data-name="Path 2" d="M542.182,293.407a.64.64,0,0,1-.745-.585c-.172-1.579-3.3-4.952-28.186-3.076-5.413.44-7.018.806-7.487,1a.632.632,0,0,1-.535-.029c-1.071-.553-4.426-2.264-7.648-3.7a.633.633,0,0,1-.189-1.022c5.777-5.988,13.233-6.329,20.685-8.8a.64.64,0,0,0,.415-.431c2.248-7.975,3.9-17.813,3.992-18.373,0-.018.006-.033.011-.05.157-.618,3.176-12.457,4.723-15.68,1.589-3.31,15.221-18.3,30.663-6.923,1.006.678,2.429,2.2,2.708,5.633.363,4.45,1.244,11.636.582,12.668a22.244,22.244,0,0,1-2.071,2.49.622.622,0,0,0-.141.609c.4,1.307,1.7,5.979.715,8.035-1.139,2.373-5.419,12.947-6.775,19.651a.552.552,0,0,1-.289.385l-.31.161a.571.571,0,0,0-.142.947,31.362,31.362,0,0,1,3.734,3.838.635.635,0,0,1-.466,1.032c-4.328.2-9.243-.318-11.731,1.855a.537.537,0,0,1-.255.128Z" transform="translate(-437.709 -225.412)" fill="none" stroke="#77eedf" stroke-miterlimit="10" stroke-width="1"/>
        <path id="Path_3" data-name="Path 3" d="M541.381,318.009a.629.629,0,0,0,.4-1.116c-3.281-2.657-7.865-8.155-8.488-7.417-.638.757,1.358,4.585-3.546,7.127a.63.63,0,0,0,.272,1.19C534.687,317.918,538.957,317.981,541.381,318.009Z" transform="translate(-449.771 -254.582)" fill="none" stroke="#77eedf" stroke-miterlimit="10" stroke-width="1"/>
        <path id="Path_4" data-name="Path 4" d="M552.136,284.889l-.58.128a.628.628,0,0,0-.3,1.064,13.6,13.6,0,0,1,3.238,4.691.639.639,0,0,0,.619.428l.327-.013a.632.632,0,0,0,.462-1.026,31.352,31.352,0,0,0-3.67-3.784.629.629,0,0,1,.126-1.032l.256-.133a.557.557,0,0,0,.291-.385c1.355-6.7,5.635-17.277,6.775-19.651.953-1.986-.228-6.4-.669-7.879-.016.118-.031.235-.039.356-.093,1.386.092,6.284-.462,7.578-.545,1.27-4.63,11.578-5.882,19.148A.626.626,0,0,1,552.136,284.889ZM518.079,277.2c-7.451,2.472-14.906,2.817-20.683,8.8a.634.634,0,0,0,.194,1.024l.53.238a.636.636,0,0,0,.73-.158c2.456-2.68,7.879-5.663,19.714-9.037a.627.627,0,0,0,.411-.356c2.385-5.655,4.735-17.4,5.028-18.886a.618.618,0,0,0-.014-.3c-.037-.126-.1-.331-.162-.6a.632.632,0,0,0-1.224,0c-.056.219-.093.363-.107.418,0,.017-.007.032-.011.049-.093.56-1.743,10.4-3.992,18.373A.64.64,0,0,1,518.079,277.2Zm22.083-44.662a.632.632,0,0,0,.168,1.229c8.837.567,18.29,2.139,18.544,5.129.462,5.453,2.033,14.232,1.386,15.249a8.555,8.555,0,0,0-1.083,2.308,21.614,21.614,0,0,0,1.995-2.408c.662-1.032-.218-8.218-.582-12.668-.279-3.43-1.7-4.955-2.708-5.633C551.4,230.969,545.248,230.837,540.163,232.535Z" transform="translate(-437.711 -225.412)" fill="none" stroke="#77eedf" stroke-miterlimit="10" stroke-width="1"/>
        <path id="Path_5" data-name="Path 5" d="M415,422.072a50.519,50.519,0,0,0,1.956,4.91.631.631,0,0,1-1.044.682l-1.076-1.2a.62.62,0,0,1-.128-.621,6.829,6.829,0,0,1,.393-.888.617.617,0,0,0,.074-.347C415.112,423.866,415.052,423.01,415,422.072Z" transform="translate(-406.79 -296.789)" fill="none" stroke="#77eedf" stroke-miterlimit="10" stroke-width="1"/>
        <path id="Path_6" data-name="Path 6" d="M423,447.2c0,9.922-.386,12.263-.965,14.467a.631.631,0,0,1-1.141.184c-3.466-5.511-6.686-19.188-6.788-25.768-1.373,2.831-.224,7.828-.118,8.271a.678.678,0,0,1,.012.071c1.319,12.533,5.922,19.4,7.9,21.824a.629.629,0,0,0,1.11-.315C423.442,462.72,424.335,454.314,423,447.2Z" transform="translate(-406.325 -302.037)" fill="none" stroke="#77eedf" stroke-miterlimit="10" stroke-width="1"/>
        <path id="Path_7" data-name="Path 7" d="M561.476,267.088c-.811.1,1.071-1.361,1.39-1.528s.21-.549.154-.877-1.016-.268-1.6-.264.745-.552,1.654-.723,3.214,1.35,4.128,2.166a5.156,5.156,0,0,0,3.852.687,11.439,11.439,0,0,1,3.1-.184c.748,0,.894-2.307.795-1.155a1.36,1.36,0,0,0,.657,1.346.611.611,0,0,1,.274.38,1.483,1.483,0,0,0,.42.674c1.439-.721,5.549-1.459,6.67-1.74a3.1,3.1,0,0,1,1.3-.083.632.632,0,0,1,.374,1.016c-.76.959-1.793,2.032-1.793,2.032l0,.02a.9.9,0,0,0-1.06.513.626.626,0,0,1-.759.327c-.5-.159-1.171-.368-1.575-.461a7.822,7.822,0,0,0-2.7.741.63.63,0,0,1-.862-.525c-.041-.426-.081-.918-.084-1.233,0-.657-2.411-.916-3-.474s-2.341,1.548-2.555,1.769-2.143-.917-2.143-.917a5.289,5.289,0,0,1-1.288-.759C566.244,267.346,562.287,266.988,561.476,267.088Z" transform="translate(-461.707 -237.453)" fill="none" stroke="#77eedf" stroke-miterlimit="10" stroke-width="1"/>
        <path id="Path_8" data-name="Path 8" d="M664.265,415.891c-4.874-7.214-6.284-10.234-5.082-11.106a.642.642,0,0,0,.27-.544c-1.046-23.594-7.778-30.763-10.069-32.332a.641.641,0,0,1-.272-.626c1.578-10.137.7-14.95-4.651-25.851-4.879-9.945-11.249-11.329-12.473-11.507a.6.6,0,0,1-.352-.181,10.389,10.389,0,0,0-1.979-1.58A.631.631,0,0,1,630.07,331a3.978,3.978,0,0,1,2.889,1.537.642.642,0,0,0,.412.291c5.7,1.108,13.795,4.952,16.691,14.833,2.659,9.072,1.784,20.547,1.591,22.672a.627.627,0,0,0,.243.554c1.237.968,6.236,5.264,6.993,12.08.866,7.788.866,19.038,1.385,20.422s7.961,10.73,8.653,22.326S667.2,446.478,664.6,459.1a.327.327,0,0,0-.006.036c-1.21,8.291-1.9,10.192-1.9,10.192,2.449-21.33,4.82-42.491,5.088-44.879a.573.573,0,0,1,.125-.306C668.174,423.82,668.6,422.311,664.265,415.891Z" transform="translate(-487.215 -262.669)" fill="none" stroke="#77eedf" stroke-miterlimit="10" stroke-width="1"/>
        <path id="Path_9" data-name="Path 9" d="M409.765,391.66a8.084,8.084,0,0,1,.615-5.592.6.6,0,0,0,.074-.343c-.6-6.693-.76-22.759,4.987-27.161a.627.627,0,0,0,.252-.474c.452-11.783,3.189-23.517,11.871-29.511a54.975,54.975,0,0,1,17.495-7.871.6.6,0,0,0,.341-.216c.605-.769,3.748-3.84,13.849-1.084.159-.185.32-.362.48-.538,1.138.488,2.315,1.024,3.431,1.549-13.293-2.9-16.589,1.036-17.153,1.939a.606.606,0,0,1-.3.25c-.855.322-4.477,1.847-12.719,7.223-9.5,6.2-16.344,16.489-14.235,29.862a.621.621,0,0,1-.233.588c-6.4,5.031-6.748,16.285-5.218,28.575a.63.63,0,0,1-1.09.5c-2.961-3.229-1.447,3.214-2.355,9.843a.631.631,0,0,1-.021.1c-5.817,19.7-2.332,33.183-2.084,34.09a.547.547,0,0,0,.034.092c.275.587,3.321,7.1,7.693,16.843a31.151,31.151,0,0,1,2.845,13.963.632.632,0,0,1-1.248.122q-.279-1.243-.541-2.546a.576.576,0,0,0-.047-.14c-4.345-9.105-10.167-25.248-10.759-26.9a.6.6,0,0,0-.148-.23c-.677-.674-4.57-5.227-3.236-19.711,1.3-14.16,6.272-21.326,7.313-22.689A.621.621,0,0,0,409.765,391.66Z" transform="translate(-402.065 -257.906)" fill="none" stroke="#77eedf" stroke-miterlimit="10" stroke-width="1"/>
        <path id="Path_10" data-name="Path 10" d="M578.976,362.771c.9,6.326-4.877,15.008-18.384,15.571-11.4.475-16.249-4.393-17.487-5.925a.623.623,0,0,0-.817-.141,32.074,32.074,0,0,1-14.916,4.526c-8.981.374-36.8.787-49.783-5.54a.687.687,0,0,1-.183-.128c-2.733-2.674-2.012-7.727,1.811-11.255a.643.643,0,0,1,1.018.179c2.086,4.594,12.892,9.019,33.089,10.968,19.78,1.909,25.754,1.249,28.766-3.908a.625.625,0,0,1,1.123.089c1.818,4.607,7.018,6.555,19.829,5.359,5.949-.555,10.261-1.749,12.1-5.073,2.508-4.536,1.555-10.841,1.772-9.975C577.287,359.02,578.412,358.832,578.976,362.771Z" transform="translate(-429.674 -272.576)" fill="none" stroke="#77eedf" stroke-miterlimit="10" stroke-width="1"/>
        <path id="Path_11" data-name="Path 11" d="M460.275,364.4a18.641,18.641,0,0,0-3.977,2.65.6.6,0,0,1-.436.151c-1.655-.082-11.241-.256-19.169,6.043a.633.633,0,0,1-.98-.242,60.832,60.832,0,0,0-5.88-10.029.628.628,0,0,1,.479-.994,18.73,18.73,0,0,0,12.105-5.643c5.53-5.371,10.926-9.678,15.181-11.24a.629.629,0,0,0-.009-1.188c-2.826-.957-.949-1.609,1.712-2.391,3.189-.938,19.449-7.238,12.321-3.674-6.969,3.484-21.08,16.008-11.166,25.534A.629.629,0,0,1,460.275,364.4Z" transform="translate(-412.423 -264.83)" fill="none" stroke="#77eedf" stroke-miterlimit="10" stroke-width="1"/>
        <path id="Path_12" data-name="Path 12" d="M436.6,388c-1.017.654-5.371,4.26-6.318,18.525a.631.631,0,0,0,1.254.135c1.206-8.1,3.086-12.555,8.684-17.531a.63.63,0,0,0-.452-1.1,15.606,15.606,0,0,1-2.75-.121A.61.61,0,0,0,436.6,388Z" transform="translate(-412.635 -283.99)" fill="none" stroke="#77eedf" stroke-miterlimit="10" stroke-width="1"/>
        <path id="Path_13" data-name="Path 13" d="M425.116,441.461c.323-1.291,1.9,1.448,2.807-.4a.629.629,0,0,1,1.077-.083c3.047,4.176,9.845,2.26,14.792-.593a.631.631,0,0,1,.833.912,20.452,20.452,0,0,1-3.889,4.2.842.842,0,0,1-.1.067,15.045,15.045,0,0,1-2.576,1.146c-4.5,1.5-4.877,13.319-6.94,12.193-1.869-1.019-1.738-8.656-1.7-10.087a.61.61,0,0,0-.139-.41C428.492,447.441,424.78,442.8,425.116,441.461Z" transform="translate(-410.693 -303.617)" fill="none" stroke="#77eedf" stroke-miterlimit="10" stroke-width="1"/>
        <path id="Path_14" data-name="Path 14" d="M433.98,481.818a70.317,70.317,0,0,0,2.4,27.486C436.537,502.912,433.98,497.639,433.98,481.818Z" transform="translate(-413.868 -319.171)" fill="none" stroke="#77eedf" stroke-miterlimit="10" stroke-width="1"/>
        <path id="Path_15" data-name="Path 15" d="M625.823,382.661l.006-.007C625.844,382.608,625.839,382.62,625.823,382.661Zm-7.373,44.113c-.017-.041-.034-.084-.052-.124,1.974-5.359,2.392-12.05,3.257-18.8.129.426.272.849.421,1.271.856-7.318,1.437-15.068.612-18.428a.615.615,0,0,1,.036-.407c.987-2.172,1.912-4.512,2.493-6.025a.629.629,0,0,0-.836-.8c-1.155.5-2.713,1.077-3.552,1.382a.621.621,0,0,0-.39.759c1.39,4.765.625,26.48-4.046,41.669a.629.629,0,0,0,1.072.6Z" transform="translate(-482.347 -282.011)" fill="none" stroke="#77eedf" stroke-miterlimit="10" stroke-width="1"/>
        <path id="Path_16" data-name="Path 16" d="M460.865,383.351a.628.628,0,0,1,.205-1.071c1.578-.534,4.735-1.634,9.518-3.441-4.9,1.839-5.106,5.443-5.114,5.734v.036a55.629,55.629,0,0,1-1.285,13.921c-2.3,8.962-3.743,10.778-6.312,15.587a.691.691,0,0,1-.036.059c-2.526,3.774-4.193,4.454-4.193,4.454s3.641-3.3,8.31-16.779C464.553,394.36,464.269,386.344,460.865,383.351Z" transform="translate(-421.39 -280.593)" fill="none" stroke="#77eedf" stroke-miterlimit="10" stroke-width="1"/>
        <path id="Path_17" data-name="Path 17" d="M650.9,426.325c-.642,1.5-1.283,9.2-2.567,9.414-1.124.187-3.887-7.659-4.558-9.618a.629.629,0,0,0-.585-.426c-2.093-.044-11.339-1.4-19.792-20.969a.64.64,0,0,1-.018-.453,14.441,14.441,0,0,0,.513-2.048.63.63,0,0,1,1.223-.089c1.852,5.7,7.037,16.45,20.814,22.995a.654.654,0,0,0,.535.009,8.139,8.139,0,0,0,4.164-3.4.59.59,0,0,0,.064-.243c.08-1.582.778-18.275-4.615-30.678a.643.643,0,0,0-.315-.328c-5.591-2.629-17.128-1.934-20.335-1.68a.626.626,0,0,1-.661-.767c.633-2.759,2.938-11.5,7.181-13.8a.641.641,0,0,1,.572-.009c2.456,1.113,7.139,7.25,9.118,9.948a.63.63,0,0,0,1.135-.3,20.993,20.993,0,0,0,.116-2.453.444.444,0,0,1,.878-.084,42.344,42.344,0,0,1,.7,4.731.607.607,0,0,0,.213.418,1.831,1.831,0,0,0,2.52.178.632.632,0,0,1,1.08.457c-.09,2.647.271,3.248.271,3.248s5.032,16.5,4.359,28.234a.63.63,0,0,0,.884.6,3.283,3.283,0,0,1,1.817-.383A10.66,10.66,0,0,0,650.9,426.325Z" transform="translate(-484.961 -278.845)" fill="none" stroke="#77eedf" stroke-miterlimit="10" stroke-width="1"/>
        <path id="Path_18" data-name="Path 18" d="M672.535,487.859s6.418-15.19-3.424-28.241C673.391,465.18,679.81,475.45,672.535,487.859Z" transform="translate(-502.107 -310.855)" fill="none" stroke="#77eedf" stroke-miterlimit="10" stroke-width="1"/>
        <path id="Path_19" data-name="Path 19" d="M690.506,476.118a27.088,27.088,0,0,0-1.534-3.075.631.631,0,0,0-1.141.525,42.45,42.45,0,0,1,1.809,6.857.629.629,0,0,0,1.248-.126q-.027-.737-.072-1.487c-.051-.856-.143-1.7-.262-2.525A.724.724,0,0,0,690.506,476.118Z" transform="translate(-509.104 -315.764)" fill="none" stroke="#77eedf" stroke-miterlimit="10" stroke-width="1"/>
        <path id="Path_20" data-name="Path 20" d="M667.419,518.4a16.837,16.837,0,0,1-3.687-2.411.63.63,0,0,0-.845.933c1.5,1.5,2.865,2.675,3.679,3.35a.629.629,0,0,0,1.013-.344l.191-.81A.624.624,0,0,0,667.419,518.4Z" transform="translate(-499.702 -331.914)" fill="none" stroke="#77eedf" stroke-miterlimit="10" stroke-width="1"/>
        <path id="Path_21" data-name="Path 21" d="M666.155,528.63l-.9,3.419a.631.631,0,0,1-1.24-.139l-.283-8.317-.408,13.685a.631.631,0,0,0,.63.65h.757a.632.632,0,0,0,.619-.51l1.686-8.591A.443.443,0,0,0,666.155,528.63Z" transform="translate(-499.94 -334.821)" fill="none" stroke="#77eedf" stroke-miterlimit="10" stroke-width="1"/>
        <path id="Path_22" data-name="Path 22" d="M578.01,354.482c.558-4.326-.418-13.539-6.7-21.634C577.592,339.408,580.383,347.085,578.01,354.482Z" transform="translate(-465.469 -263.363)" fill="none" stroke="#77eedf" stroke-miterlimit="10" stroke-width="1"/>
        <path id="Path_23" data-name="Path 23" d="M500.1,323.208a.621.621,0,0,1-.423-.042,58.981,58.981,0,0,0-14.723-4.724,32.015,32.015,0,0,1,5.348,1.025c.129-.151.266-.293.4-.442,3.98.931,7.95,2.049,10.322,2.743a.63.63,0,0,1-.026,1.217Z" transform="translate(-433.118 -257.967)" fill="none" stroke="#77eedf" stroke-miterlimit="10" stroke-width="1"/>
        <path id="Path_24" data-name="Path 24" d="M608.055,449.449c-.7,3.015-1.7,6.263-3.061,8.241a.629.629,0,0,0-.034.682c2.186,3.685,6.7,13.58,3.573,20.982a.641.641,0,0,0,.116.675c1.3,1.5-.308,6.392-5.138,13.125a.633.633,0,0,1-1.089-.633c3.862-8.37,5.062-8.721,4-13.08a.616.616,0,0,1,0-.308c.789-2.967,1.336-13.183-3.358-18.682a.63.63,0,0,1-.146-.315c-.509-3.433,1.576-5.711,3.939-11.078A.631.631,0,0,1,608.055,449.449Z" transform="translate(-477.1 -306.757)" fill="none" stroke="#77eedf" stroke-miterlimit="10" stroke-width="1"/>
        <path id="Path_25" data-name="Path 25" d="M586.3,440.2c.056,5.224-.23,11.516-1.362,14.841a.607.607,0,0,0,0,.393c2.095,6.3,4.374,14.029,1.705,20.635a.619.619,0,0,0-.043.271c.426,6.22.421,9.68-.344,12.967a.631.631,0,0,1-1.245-.175,104.286,104.286,0,0,0-.375-13.341.657.657,0,0,1,.006-.164c.167-1.021,1.749-11.475-1.9-20.609a.624.624,0,0,1-.039-.308c.8-6.383,1.7-10.6,2.352-14.607A.63.63,0,0,1,586.3,440.2Z" transform="translate(-469.733 -303.345)" fill="none" stroke="#77eedf" stroke-miterlimit="10" stroke-width="1"/>
        <path id="Path_26" data-name="Path 26" d="M544.047,430.287c-.241,5.257-.641,16.442,3.269,21.995a.608.608,0,0,1,.093.525c-1.586,5.5-2.963,13.409-.952,19.183a.6.6,0,0,1,.021.315,24.364,24.364,0,0,0,.313,10.706.63.63,0,0,1-1.209.35,30.158,30.158,0,0,1-2.019-12.764.552.552,0,0,0-.018-.178c-1.547-5.879.4-14.322.961-17.777a.612.612,0,0,0-.143-.5c-3.068-3.576-6.68-8.363-6.68-12.209,0-1.427,3.323-6.982,5.2-10.007A.63.63,0,0,1,544.047,430.287Z" transform="translate(-452.87 -299.619)" fill="none" stroke="#77eedf" stroke-miterlimit="10" stroke-width="1"/>
        <path id="Path_27" data-name="Path 27" d="M582.573,462.7c-2.752-1.083-6.15-1.6-8.638-.075a.66.66,0,0,1-.7-.006c-3.306-2.1-11.777-2.917-17.916-.064a.632.632,0,0,0,.354,1.2c11.456-1.558,17.343.592,18.566,1.118a.616.616,0,0,0,.493,0,14.886,14.886,0,0,1,7.511-.96A.632.632,0,0,0,582.573,462.7Z" transform="translate(-459.339 -311.266)" fill="none" stroke="#77eedf" stroke-miterlimit="10" stroke-width="1"/>
        <path id="Path_28" data-name="Path 28" d="M587.584,494.935c-3.43-.442-9.174-.648-12.177.294a.594.594,0,0,1-.386,0,46.162,46.162,0,0,0-18.245-1.875.631.631,0,0,1-.246-1.232c6.276-1.969,15.141-1.569,19.074,1.083a.625.625,0,0,0,.6.059,14.664,14.664,0,0,1,11.768.5A.632.632,0,0,1,587.584,494.935Z" transform="translate(-459.763 -322.567)" fill="none" stroke="#77eedf" stroke-miterlimit="10" stroke-width="1"/>
        <path id="Path_29" data-name="Path 29" d="M494.245,431.852c-3.309-3.33-15.372-8.493-27.669-24.536a.635.635,0,0,1-.078-.635c3.5-8.148,4.473-16.367,15.923-22.038a.631.631,0,0,1,.891.4c1.079,4.372-3.525,17.856-1.879,20.2,8.05,11.448,15.376,13.912,17.093,14.351a.62.62,0,0,1,.453.47,10.582,10.582,0,0,0,5.545,7.1.628.628,0,0,1-.135,1.178,36.79,36.79,0,0,0-9.409,3.617A.614.614,0,0,1,494.245,431.852Z" transform="translate(-426.184 -282.742)" fill="none" stroke="#77eedf" stroke-miterlimit="10" stroke-width="1"/>
        <path id="Path_30" data-name="Path 30" d="M509.89,490.172a5.385,5.385,0,0,1-.488-1.214.633.633,0,0,1,.789-.779,25.535,25.535,0,0,0,3.63.782.629.629,0,0,1,.091,1.227,41.222,41.222,0,0,0-4.326,1.577c.119-.356.241-.7.366-1.033A.651.651,0,0,0,509.89,490.172Z" transform="translate(-442.267 -321.544)" fill="none" stroke="#77eedf" stroke-miterlimit="10" stroke-width="1"/>
        <path id="Path_31" data-name="Path 31" d="M631.761,345.717c-.235-1.019-3.948-6.141-8.3-9.07a.629.629,0,0,1,.31-1.153c1.207-.066,2.3-.074,3.192-.057a.632.632,0,0,1,.394,1.111c-.527.492-.721,1.183.165,2.106C629.642,340.86,631.761,345.717,631.761,345.717Z" transform="translate(-484.9 -264.33)" fill="none" stroke="#77eedf" stroke-miterlimit="10" stroke-width="1"/>
        <path id="Path_32" data-name="Path 32" d="M512.828,417.149s-5.757,3.59-6,12.009a.627.627,0,0,1-1.065.435C504.136,427.893,503.356,423.323,512.828,417.149Z" transform="translate(-440.539 -294.945)" fill="none" stroke="#77eedf" stroke-miterlimit="10" stroke-width="1"/>
        <path id="Path_33" data-name="Path 33" d="M505.593,411.229s-5.758,3.59-6,12.008a.627.627,0,0,1-1.065.435C496.9,421.972,496.121,417.4,505.593,411.229Z" transform="translate(-437.829 -292.727)" fill="none" stroke="#77eedf" stroke-miterlimit="10" stroke-width="1"/>
        <path id="Path_34" data-name="Path 34" d="M499.8,408.051a12.389,12.389,0,0,0-6.576,8.851.632.632,0,0,1-1.186.151C491.146,415.268,491.634,411.62,499.8,408.051Z" transform="translate(-435.65 -291.536)" fill="none" stroke="#77eedf" stroke-miterlimit="10" stroke-width="1"/>
        <path id="Path_35" data-name="Path 35" d="M463.484,572.865l1.408-1.819a.63.63,0,0,0,.1-.593c-.568-1.636-3.131-8.931-3.6-9a25.755,25.755,0,0,0-4.011,1.061.614.614,0,0,0-.355.291c-.375.675-1.457,2.715-1.015,2.967.405.233,2.093-.111,2.867-.286a.615.615,0,0,0,.463-.438,4.548,4.548,0,0,1,.611-1.321,5.713,5.713,0,0,0,.019,1.915.63.63,0,0,1-.792.742,4.618,4.618,0,0,0-1.577-.155,5.3,5.3,0,0,0-1.864.356.628.628,0,0,1-.842-.775c.76-2.315,2.36-6.207,5.131-8.828a28.834,28.834,0,0,0-1.579,3.084.629.629,0,0,0,.846.822,8.767,8.767,0,0,1,2.325-.875c.31.044,1.186,1.585,1.864,2.862-.288.253-.457.42-.457.42s2.919,6.463,2.5,7.713c-.31.93-.735,1.974-.933,2.45a.613.613,0,0,1-.367.347,10.844,10.844,0,0,0-1.737.786.6.6,0,0,1-.226.079c-2.249.3-5.544.756-8.21,1.232a.631.631,0,0,1-.363-1.2,20.354,20.354,0,0,1,9.263-1.6A.627.627,0,0,0,463.484,572.865Z" transform="translate(-421.262 -347.33)" fill="none" stroke="#77eedf" stroke-miterlimit="10" stroke-width="1"/>
        <path id="Path_36" data-name="Path 36" d="M660.616,569.765s.355-2.479-3.827-7.94a.631.631,0,0,0-1.012,0c-.813,1.165-2.9,2.664-4.888,2.032a.662.662,0,0,0-.44.009c-2.411.96-2.939,1.111-4.2,2.057-1.3.976-1.82,2.016-2.8.325.066.911.39,2.471,2.081,1.236a17.6,17.6,0,0,1,4.967-2.812.641.641,0,0,1,.344,0,5.4,5.4,0,0,0,4.936-1.33.623.623,0,0,1,.865.043A17.137,17.137,0,0,1,660.616,569.765Z" transform="translate(-492.494 -349.049)" fill="none" stroke="#77eedf" stroke-miterlimit="10" stroke-width="1"/>
        <path id="Path_37" data-name="Path 37" d="M665.82,568.434c0,.974,2.6,6.177-4.486,1.69a18.116,18.116,0,0,1,3.7,2.841.631.631,0,0,0,1.108-.274,2.226,2.226,0,0,1,.662-1.208.617.617,0,0,0,.14-.687C666.511,569.766,665.82,568.434,665.82,568.434Z" transform="translate(-499.194 -351.62)" fill="none" stroke="#77eedf" stroke-miterlimit="10" stroke-width="1"/>
        <path id="Path_38" data-name="Path 38" d="M659.194,580.337s-.185-.028-.5-.081a15.067,15.067,0,0,1-1.965-2.364.591.591,0,0,0-.117-.129c-2.011-1.627-5.84-6.069-5.636-6.748.175-.581,1.874-3.768,2.393-4.735a.624.624,0,0,1,.465-.324l.647-.093s-2.473,4.466-2.4,5.565c.066,1.038,4.911,5.753,5.448,6.273a.567.567,0,0,1,.087.106l1.741,2.662C659.253,580.388,659.194,580.337,659.194,580.337Z" transform="translate(-495.31 -350.657)" fill="none" stroke="#77eedf" stroke-miterlimit="10" stroke-width="1"/>
        <path id="Path_39" data-name="Path 39" d="M444.4,585.847c-.625.209-3.961,1.668-5.211,1.668-1.171,0-2.523-4.2-2.692-4.738a.6.6,0,0,0-.045-.107,66.077,66.077,0,0,1-3.311-7.478.631.631,0,0,1,1.143-.529c2.929,5.446,5.67,9.469,5.867,9.9.419.77,1.925.858,3.461.07a.623.623,0,0,1,.276-.069,5.765,5.765,0,0,0,.587-.049.631.631,0,0,1,.243,1.233C444.563,585.8,444.454,585.829,444.4,585.847Z" transform="translate(-413.689 -353.829)" fill="none" stroke="#77eedf" stroke-miterlimit="10" stroke-width="1"/>
        <path id="Path_40" data-name="Path 40" d="M445.92,582.192s-.943-2.2-1.677-3.772C445.605,579.677,446.653,580.62,445.92,582.192Z" transform="translate(-417.866 -355.361)" fill="none" stroke="#77eedf" stroke-miterlimit="10" stroke-width="1"/>
        <path id="Path_41" data-name="Path 41" d="M577.461,243.069a25.637,25.637,0,0,1,2.046-5.56.647.647,0,0,0,.052-.573,12.524,12.524,0,0,0-2.533-4.12.627.627,0,0,1,.081-.941l.772-.572a.628.628,0,0,0,.118-.9c-1.245-1.545-5.075-6.122-7.469-7.039-2.877-1.1-14.184-3.637-21.028,1.378a.587.587,0,0,1-.213.1c-5.693,1.318-9.478,4.27-10.432,5.481-.841,1.068-.789,12.439-.763,15.252a.623.623,0,0,0,.57.62c1.181.1,3.853.917,4.417,6.333a.643.643,0,0,0,.483.56c1.568.384,3.926.171,3.672-.723-.281-.984-1.551-6.182-.6-7.314s3.42-1.992,3.13-4.384a5.946,5.946,0,0,1,.59-4.213.443.443,0,0,1,.811.176c.015.091.031.174.049.251a.442.442,0,0,0,.8.15,11.313,11.313,0,0,1,2.814-2.856.3.3,0,0,1,.439.4c-.191.311-.35.595-.482.851a.3.3,0,0,0,.488.34,10.285,10.285,0,0,1,4.547-2.913,21.447,21.447,0,0,1,3.116-.678.631.631,0,0,1,.558,1.039l-3.193,3.684a.631.631,0,0,0,.565,1.038l14.021-1.985a.63.63,0,0,1,.716.565l.613,6.445A.63.63,0,0,0,577.461,243.069Z" transform="translate(-453.02 -221.74)" fill="none" stroke="#77eedf" stroke-miterlimit="10" stroke-width="1"/>
        <path id="Path_42" data-name="Path 42" d="M540.613,264.408a.629.629,0,0,0,.006-.109c-.051-2.552-1.265-6.694-3.906-6.786-2.662-.092-2.159,5.683-.687,9.278.9,2.187,3.389,4.153,3.8,2.187C540.208,267.174,540.557,264.79,540.613,264.408Z" transform="translate(-451.798 -235.141)" fill="none" stroke="#77eedf" stroke-miterlimit="10" stroke-width="1"/>
        <path id="Path_43" data-name="Path 43" d="M540.872,292.588a.631.631,0,0,0-1.259,0,11.1,11.1,0,0,0,.1,3.583c.645,1.088,11.88,10.4,13.485,11.7s11.561,2.255,15.511-.134l-.293-.29s-.643-.76-5.224-1.385a28.524,28.524,0,0,0-8.956.429.623.623,0,0,1-.54-.143c-1.717-1.5-12.1-10.577-12.5-11.275A11.4,11.4,0,0,1,540.872,292.588Z" transform="translate(-453.567 -248.061)" fill="none" stroke="#77eedf" stroke-miterlimit="10" stroke-width="1"/>
        <path id="Path_44" data-name="Path 44" d="M582.647,422.074c-1.327-3.595-5.062-8.36-14.049-5.755a.625.625,0,0,1-.6-.136c-3.294-3.052-24.58-2.049-31.568,16.936a.6.6,0,0,1-.078.148l-.942,1.286a.63.63,0,0,1-1.126-.506c1.163-5.221,4.888-16.55,15.771-20.721,6.673-2.558,15.22-1.954,18.138.259a.6.6,0,0,0,.582.093c5.345-2.034,15.9-1.454,15.086,8.232A.63.63,0,0,1,582.647,422.074Z" transform="translate(-451.592 -292.885)" fill="none" stroke="#77eedf" stroke-miterlimit="10" stroke-width="1"/>
        <path id="Path_45" data-name="Path 45" d="M571.268,265.321a52.77,52.77,0,0,1-7.207-2.956c-1.711-1.081-2.848.49-4.14,1.608-.317.275,1.618-.33,2.762-.672.371-.111,2.782,2.056,5.078,3.079S572.6,265.8,571.268,265.321Z" transform="translate(-461.189 -236.823)" fill="none" stroke="#77eedf" stroke-miterlimit="10" stroke-width="1"/>
        <path id="Path_46" data-name="Path 46" d="M585.434,269.355a.643.643,0,0,0-.522.038c-.47.257-.691.68-.8,1.629-.134,1.114-.14,7.746-.14,7.746s.529-5.861.664-6.975a1.779,1.779,0,0,1,1.359-1.752C586.584,269.822,585.851,269.5,585.434,269.355Z" transform="translate(-470.21 -239.563)" fill="none" stroke="#77eedf" stroke-miterlimit="10" stroke-width="1"/>
        <path id="Path_47" data-name="Path 47" d="M591.771,267.616a.629.629,0,0,0-.468-1.165l-.087.031c-1.849.686-4.294,1.161-5.428,1.475s-.592.706.787,1.25,3.909-.951,5.159-1.572Z" transform="translate(-470.663 -238.474)" fill="none" stroke="#77eedf" stroke-miterlimit="10" stroke-width="1"/>
        <path id="Path_48" data-name="Path 48" d="M646.746,581.036a.556.556,0,0,1-.176-.183c-1.748-2.741-4.945-5.785-4.6-6.639.07-.176.162-.411.264-.672a2.906,2.906,0,0,1,1.742.767.621.621,0,0,0,.732.064c.535-.392,1.992-.043,3.963.871a.636.636,0,0,0,.854-.35c1.216-2.974,9.222,5.453,12.1,8.62a.623.623,0,0,1-.11.943,8.107,8.107,0,0,1-1.887.834c-.9.3-3.119-1.5-3.678-1.966a.608.608,0,0,0-.3-.138C654.519,583.007,648.232,581.967,646.746,581.036Z" transform="translate(-491.929 -353.534)" fill="none" stroke="#77eedf" stroke-miterlimit="10" stroke-width="1"/>
        <path id="Path_49" data-name="Path 49" d="M470.254,399.484c3.242-5.087,9.935-13.062,21.249-15.952a.63.63,0,0,0,.008-1.215c-14.469-4.153-17.8-3.967-18.43-3.842a.581.581,0,0,0-.205.083c-.532.336-3.768,2.485-3.34,4.765.4,2.113,1.467,6.925-.425,15.679A.63.63,0,0,0,470.254,399.484Z" transform="translate(-427.176 -280.438)" fill="none" stroke="#77eedf" stroke-miterlimit="10" stroke-width="1"/>
        <path id="Path_50" data-name="Path 50" d="M536.029,518.527l.051,0c9.23-.346,18.406,0,27.62.532,2.881.167,5.945.346,8.972.784a.672.672,0,0,1,.2.063c2.485,1.252,4.872,2.573,6.453,3.469a.631.631,0,0,1-.273,1.178c-2.44.161-6.258.633-7.753,2.009a.608.608,0,0,0-.184.432l-.73,23.341a.627.627,0,0,1-.611.61c-1.193.035-3.937.61-5.866,4.841a.626.626,0,0,1-.343.327c-3.917,1.5-9.207,5.041-11.138,13.892a.63.63,0,0,1-1.214.07A106.183,106.183,0,0,1,548,558.028a.656.656,0,0,0-.111-.253c-2.459-3.347-4.259-1.558-4.637-1.107a.6.6,0,0,0-.107.189,68.147,68.147,0,0,1-4.406,9.691.631.631,0,0,1-1.176-.212c-.525-3.391-1.858-6.813-4.922-8.365a.632.632,0,0,1-.357-.615c.941-11.278-.34-24.868-4.328-29.106-3.665-3.893-17.3-2.592-23.57-1.752a.63.63,0,0,1-.462-1.129C508.257,522.27,522.515,520.007,536.029,518.527Z" transform="translate(-440.128 -332.87)" fill="none" stroke="#77eedf" stroke-miterlimit="10" stroke-width="1"/>
        <path id="Path_51" data-name="Path 51" d="M432.2,681.276c.036.2.079.385.12.578.233.053.444.094.629.128a.628.628,0,0,0,.732-.688,38.311,38.311,0,0,1,1.169-13.5c1.554-5.751,6.841-13.764,10.179-19.427a.631.631,0,0,0-1.011-.743c-1.464,1.623-3.476,3.925-6.177,7.145C430.508,663.506,429.944,668.584,432.2,681.276Zm20.308-50.2c-.512,1.316-1.1,2.822-1.689,4.331a.631.631,0,0,0,1.139.536c2.406-4.361,4.8-8.926,6.271-11.12a.614.614,0,0,0,.1-.363c-.807-28.334,5.611-47.978,11.716-59.341a.616.616,0,0,0-.121-.744c-.992-.944-1.542-2.939-1.835-5.179a.63.63,0,0,0-1.255.06,11.77,11.77,0,0,0,.275,3.356.645.645,0,0,1-.028.415c-.861,2-7.723,18.141-10.628,30.818a68.439,68.439,0,0,0-1.128,25.666C455.61,621.764,454.482,625.995,452.508,631.072Z" transform="translate(-412.916 -347.951)" fill="none" stroke="#77eedf" stroke-miterlimit="10" stroke-width="1"/>
        <path id="Path_52" data-name="Path 52" d="M631.744,539a.63.63,0,0,1,1.133-.541c5.931,10.08,12.807,29.833,14.957,51.089,2.5,24.686.628,31.1-1.043,33.985a.628.628,0,0,0-.085.315c0,4.864-.219,7.8-.271,8.439a.578.578,0,0,0,.034.255c.349.962,2.542,7.373.9,12.291a.616.616,0,0,0,.055.525c3.667,5.941,9.116,15.49,6.335,31.623h0a27.951,27.951,0,0,1-2.194-1.82.63.63,0,0,1-.178-.614c1.308-5.513-.41-21.091-4.7-27.256a.612.612,0,0,1-.109-.33c-.24-7.3-.7-12.324-.735-12.684,0-.014,0-.027,0-.041-.012-.514-.241-10.408,0-11.132.248-.743,2.231-11.9,0-29.494C643.806,577.571,638.362,556.564,631.744,539Z" transform="translate(-488.091 -340.272)" fill="none" stroke="#77eedf" stroke-miterlimit="10" stroke-width="1"/>
        <path id="Path_53" data-name="Path 53" d="M638.663,443.877l7.717,6.673a.627.627,0,0,1,.081.869c-.979,1.216-3.371,4.66-2.223,8.1,1.2,3.586,3.392,13.344,5.331,18.1a.63.63,0,0,1-.853.809c-2.147-.99-1.18,2,.034,4.765a.621.621,0,0,1-.467.871c-.46.06-.617.464-.508,1.1a.629.629,0,0,1-1.087.533,46.91,46.91,0,0,1-3.453-4.245c-2.942-4.154-5.539-12.98-5.711-20.769a24.953,24.953,0,0,1,2.55-12.075.624.624,0,0,0-.089-.719c-.438-.48-1.307-1.46-2.378-2.808a.641.641,0,0,1-.079-.661q.083-.184.157-.337A.628.628,0,0,1,638.663,443.877Z" transform="translate(-490.253 -304.899)" fill="none" stroke="#77eedf" stroke-miterlimit="10" stroke-width="1"/>
        <path id="Path_54" data-name="Path 54" d="M585.155,282.682c-.078.325,1.887,2.734,2.285,3.136a5.623,5.623,0,0,1,.4,1.894.631.631,0,0,0,1.248.031,42.167,42.167,0,0,1,.761-4.179C589.952,283.292,585.231,282.358,585.155,282.682Z" transform="translate(-470.654 -244.545)" fill="none" stroke="#77eedf" stroke-miterlimit="10" stroke-width="1"/>
        <path id="Path_55" data-name="Path 55" d="M645.519,682.17l-.136.422a.628.628,0,0,1-.686.43c-1.7-.244-7.131-.909-9.47.13,1.934-2.486,7.536-1.68,8.743-1.473a.558.558,0,0,0,.428-.1l.146-.108A.631.631,0,0,1,645.519,682.17Z" transform="translate(-489.413 -393.918)" fill="none" stroke="#77eedf" stroke-miterlimit="10" stroke-width="1"/>
        <path id="Path_56" data-name="Path 56" d="M650.064,692.617s1.14-6.853.738-9.558a.3.3,0,0,0-.388-.244,3.028,3.028,0,0,1-.4.082.3.3,0,0,0-.255.333A50.58,50.58,0,0,1,650.064,692.617Z" transform="translate(-494.856 -394.466)" fill="none" stroke="#77eedf" stroke-miterlimit="10" stroke-width="1"/>
        <path id="Path_57" data-name="Path 57" d="M631.841,597.74s1.032,12.522.036,20.723a.631.631,0,0,1-1.209.162c-3.454-8.379-8.442-21.5-8.442-21.5s5.526,18.377,8.623,24.715a.631.631,0,0,0,1.188-.165A72.037,72.037,0,0,0,631.841,597.74Z" transform="translate(-484.543 -362.367)" fill="none" stroke="#77eedf" stroke-miterlimit="10" stroke-width="1"/>
        <path id="Path_58" data-name="Path 58" d="M525.808,611.471s-4.984,10.228-9.872,16.643a.631.631,0,0,1-1.128-.463c1.121-8.8,2.971-21.508,2.971-21.508s-4.364,18.687-4.835,25.726a.632.632,0,0,0,1.113.45A72.039,72.039,0,0,0,525.808,611.471Z" transform="translate(-443.603 -365.747)" fill="none" stroke="#77eedf" stroke-miterlimit="10" stroke-width="1"/>
        <path id="Path_59" data-name="Path 59" d="M640.416,733.167l-.5,4.631a.63.63,0,0,0,.256.577l.638.465a.63.63,0,0,0,1-.527c-.034-1.189-.087-3.076-.144-5.1A.631.631,0,0,0,640.416,733.167Z" transform="translate(-491.171 -413.122)" fill="none" stroke="#77eedf" stroke-miterlimit="10" stroke-width="1"/>
        <path id="Path_60" data-name="Path 60" d="M618.335,713.352l-.006-.015A45.493,45.493,0,0,1,621.416,706c-1.63,5.433-3.485,11.768-4.466,15.13C617.872,716.584,618.335,713.352,618.335,713.352Z" transform="translate(-482.566 -403.154)" fill="none" stroke="#77eedf" stroke-miterlimit="10" stroke-width="1"/>
        <path id="Path_61" data-name="Path 61" d="M469.807,634.822c0-.017,0-.036-.006-.054-.006-.151-.018-.3-.035-.434-.041-.323-.109-.8-.189-1.423a.631.631,0,0,1,1.221-.287,78.513,78.513,0,0,0,4.772,11.157.628.628,0,0,0,.663.324c4.548-.69,10.063,1.572,10.959.08.65-1.082,5.1-7.482,7.691-11.2a.63.63,0,0,1,1.129.508l-2.343,10.076s1.235-4.806.707-2.189a.638.638,0,0,0,.592.756c1.578.124,2.7,2.123,3.332,3.663a.628.628,0,0,0,1.174-.041,97.313,97.313,0,0,1,7.148-15.45c3.492-6.286,7.478-20.48,10.28-31.613a.631.631,0,0,1,1.235.253c-.769,4.763-1.67,10.09-2.62,15.166a.731.731,0,0,1-.018.072,116.417,116.417,0,0,1-11.886,26.355c-3.667,6.2-3.385,8.743-4.795,9.589a5.089,5.089,0,0,1-3.1.564s-.034.109-.095.3a59.1,59.1,0,0,0-8.429-3.724c-5.712-1.987-13.5.525-16.32,1.578a.627.627,0,0,1-.842-.692A42.927,42.927,0,0,0,469.807,634.822Z" transform="translate(-427.355 -362.776)" fill="none" stroke="#77eedf" stroke-miterlimit="10" stroke-width="1"/>
        <path id="Path_62" data-name="Path 62" d="M464.356,687.1a7.682,7.682,0,0,0,.851,3.4.622.622,0,0,0,.629.34,7.336,7.336,0,0,1,4.385,1.014.631.631,0,0,0,.89-.317c1.475-3.616,2.861-5.4,4.6-5.893,1.843-.527,10.532,5.528,11.98,4.475.356-.259.841-.645,1.367-1.081a.632.632,0,0,1,.981.744,18.94,18.94,0,0,1-3.528,5.732.629.629,0,0,1-.953-.091,4.13,4.13,0,0,0-1.37-1.281.627.627,0,0,1,.084-1.123,4.014,4.014,0,0,0,1.6-1.014.593.593,0,0,0-.224-.974c-2.116-.956-9.151-4.042-9.932-3.149-.922,1.053-4.74,12.9-4.477,15.14.221,1.883-1.977,8.979-2.447,11.659a.632.632,0,0,1-.945.433c-.786-.464-1.183-.833-.688-2.612.607-2.183,2.219-8.725,2.469-9.741a.588.588,0,0,0,.006-.264c-.171-.857-1.065-5.713.107-8.558a.629.629,0,0,0-.229-.737,7.993,7.993,0,0,0-4.7-1.246.614.614,0,0,0-.287.084l-2.762,1.593a.63.63,0,0,1-.767-.986l1.712-1.755a.634.634,0,0,0,.168-.557,7.371,7.371,0,0,1,.25-3.393A.631.631,0,0,1,464.356,687.1Z" transform="translate(-424.07 -395.516)" fill="none" stroke="#77eedf" stroke-miterlimit="10" stroke-width="1"/>
        <path id="Path_63" data-name="Path 63" d="M589.827,615.382c.105-1.622.27-4.026.5-7.094a.631.631,0,0,1,1.26.059,75.146,75.146,0,0,0,1.488,18.976.662.662,0,0,0,.054.161c8.054,16.7,15.174,20.407,16.413,19.786a17.166,17.166,0,0,0,4.656-3.414c1.531-1.531.964-8.73,1.059-16.935a.632.632,0,0,1,1.251-.117c.288,1.479.578,3.034.794,4.327.583,3.506,5.292,8.386,8.692,11.018a.63.63,0,0,0,.966-.251c.195-.455.4-1,.6-1.6a.631.631,0,0,1,1.223.291A14.741,14.741,0,0,1,627,646.1c0,.178,0,.348,0,.521-1.694,1.312-2.867.964-2.867.964l-11.048-1.265a.622.622,0,0,0-.364.068c-.993.523-5.914,3.245-5.969,5.852-.06,2.844,2.782,5.418,4.942,9.911a.637.637,0,0,0,.435.347c2.271.515,8.6-.269,11.188-.625a.63.63,0,0,1,.69.814,3.39,3.39,0,0,0-.068,2.181.6.6,0,0,1-.1.614,1.638,1.638,0,0,0-.241.345.453.453,0,0,1-.289.233,20.623,20.623,0,0,1-5.4.617.632.632,0,0,0-.628.862,52.033,52.033,0,0,1,1.758,5.165.631.631,0,0,0,.986.336A7,7,0,0,1,621.908,672a.629.629,0,0,1,.8.615c0,.774.011,1.4.021,1.747a.624.624,0,0,1-.2.48c-.847.773-3.962,3.465-4.3,1.6a16.325,16.325,0,0,0-8.067-11.639.617.617,0,0,1-.328-.518c-.085-1.634-.623-8.24-3.766-7.926-1.159.116-3.674,6.274-3.367,11.062-.2-1.07-.39-2.264-.526-3.561a17.772,17.772,0,0,1,.995-8.443.618.618,0,0,0-.059-.583,103.892,103.892,0,0,1-9.4-18.332,69.913,69.913,0,0,1-3.366-12.022.585.585,0,0,0-.074-.2,134.659,134.659,0,0,1-11.152-25.466.632.632,0,0,1,1.17-.47l8.336,17.265A.631.631,0,0,0,589.827,615.382Z" transform="translate(-468.383 -362.692)" fill="none" stroke="#77eedf" stroke-miterlimit="10" stroke-width="1"/>
        <path id="Path_64" data-name="Path 64" d="M482.041,712.619l-3.3-.958a.63.63,0,0,1-.45-.682l.155-1.274a.63.63,0,0,1,.785-.534l3.76.985a.619.619,0,0,0,.619-.18c2.923-3.218,6.254-9.588,7.111-11.271a.625.625,0,0,1,.676-.332c.407.077,1.019.2,1.575.363a.636.636,0,0,1,.3,1.034,5.088,5.088,0,0,1-1.144,1.017.632.632,0,0,0-.279.34,34.087,34.087,0,0,1-5.994,10.052.608.608,0,0,0-.148.371c-.089,1.8-.857,14.649-4.932,21.015a.631.631,0,0,1-.38.269q-1.062.269-2.081.553a.627.627,0,0,1-.68-.964c6.322-9.367,5.206-17.5,4.846-19.32A.628.628,0,0,0,482.041,712.619Z" transform="translate(-430.334 -400.294)" fill="none" stroke="#77eedf" stroke-miterlimit="10" stroke-width="1"/>
        <path id="Path_65" data-name="Path 65" d="M645.895,783.765c.1-1.79,1.4-23.408,4.8-40.181a.637.637,0,0,0-.135-.53,34.606,34.606,0,0,0-8.869-7.644.631.631,0,0,0-.913.331l-2.4,6.7a.631.631,0,0,1-1,.27l-7.862-6.583a.631.631,0,0,0-.927.13l-13.589,20.079a.625.625,0,0,0-.063.59c.526,1.276,3.155,7.078,15.233,28.929a.632.632,0,0,1,.08.306v4.117a.635.635,0,0,0,.077.3l.994,1.822a.633.633,0,0,1-.056.69l-1.111,1.426a.628.628,0,0,0-.131.334c-.083,1-.5,5.91-1.254,12.5-.653,5.719-.044,8.66.267,9.7a.627.627,0,0,0,.6.448h4.724a.643.643,0,0,1,.491.219c.46.542,1.949,1.894,5.331,1.894h22.835c2.537,0,1.779-9.923.722-11.4-1.037-1.453-5.417-3.732-9.976-5.016a.628.628,0,0,1-.387-.313c-3.109-5.94-5.63-11.95-6.708-14.616a1.837,1.837,0,0,1,.108-1.369.628.628,0,0,0-.432-.867c-1.113-.248-2.891-.668-2.146-.668.871,0,1.455-1,1.634-1.359A.59.59,0,0,0,645.895,783.765Z" transform="translate(-481.792 -414.141)" fill="none" stroke="#77eedf" stroke-miterlimit="10" stroke-width="1"/>
        <path id="Path_66" data-name="Path 66" d="M465.263,738.561c-1.622,9.622-7.629,26.274-15.816,39.2a.633.633,0,0,0-.067.526c.731,2.31,1.062,3.072-.088,4.069-2.837,2.46-1.548,4.571-.757,4.73s3.092,13.321,4.537,14.868,6.676,4.212,7.738,6.293c1.127,2.21.5,8.229.278,10.087a.63.63,0,0,1-.626.555H431.281c-1.582,0-4.9-3.165-4.747-7.436s4.9-23.1,5.38-24.047,1.74-1.583,1.423-2.531a44.169,44.169,0,0,1-2.214-5.538c-.473-2.048-4.083-15.235-3.8-37.063a.642.642,0,0,1,.2-.459c7.069-6.672,19.66-12.254,22.807-13.59a.629.629,0,0,1,.865.472l1.6,9.062a.631.631,0,0,0,1.033.368l7.366-6.349a.63.63,0,0,1,.978.2l3.032,6.2A.63.63,0,0,1,465.263,738.561Z" transform="translate(-411.23 -411.463)" fill="none" stroke="#77eedf" stroke-miterlimit="10" stroke-width="1"/>
        <path id="Path_67" data-name="Path 67" d="M431.448,797.361a.631.631,0,0,0,1.186.418c1.123-2.586,2.062-4.293,2.546-4.361,1.547-.221,2.883-1.291.55-2.191a.653.653,0,0,1-.4-.446c-4.486-18.074-5.268-31.944-3.656-43.929a.634.634,0,0,0-1.017-.587c-.948.742-1.846,1.5-2.668,2.278a.641.641,0,0,0-.2.459c-.283,21.828,3.328,35.015,3.8,37.063A44.184,44.184,0,0,0,433.8,791.6c.317.949-.949,1.581-1.423,2.531C432.268,794.356,431.918,795.574,431.448,797.361Z" transform="translate(-411.696 -418.188)" fill="none" stroke="#77eedf" stroke-miterlimit="10" stroke-width="1"/>
        <path id="Path_68" data-name="Path 68" d="M663.274,789.783a.628.628,0,0,0-.431-.867c-1.113-.248-2.891-.668-2.146-.668.871,0,1.455-1.005,1.633-1.359a.589.589,0,0,0,.065-.241c.1-1.79,1.4-23.408,4.8-40.182a.634.634,0,0,0-.134-.529,35.3,35.3,0,0,0-2.532-2.74.63.63,0,0,0-1.068.425c-.354,7.791-1.632,35.1-2.423,41.332a.61.61,0,0,1-.112.282l-1.877,2.627a.63.63,0,0,0,.1.845l2.618,2.245a.618.618,0,0,1,.209.359c.245,1.311,1.709,8.384,5.583,12.649a.632.632,0,0,0,1.037-.7c-2.513-5.061-4.5-9.818-5.43-12.108A1.838,1.838,0,0,1,663.274,789.783ZM680.237,811.1c-1.057-1.48-5.586-3.819-10.237-5.089,5.539,3.3,8.075,3.072,9,6.3.333,1.164.665,2.719.954,4.23a.631.631,0,0,0,1.251-.134C681.11,814.043,680.7,811.75,680.237,811.1Z" transform="translate(-498.293 -417.023)" fill="none" stroke="#77eedf" stroke-miterlimit="10" stroke-width="1"/>
        <g id="Group_1" data-name="Group 1" transform="translate(58.639 173.55)">
          <path id="Path_69" data-name="Path 69" d="M538.613,551.484a.62.62,0,0,0,.607.61c1.6.046,5.859.166,7.186.166,1.643,0,12.09-8.875,14.143-12.983,1.827-3.653,3.56-17.635,3.921-20.684a.624.624,0,0,1,.664-.552,124.468,124.468,0,0,1,13.709,1.589.628.628,0,0,0,.747-.682c-.489-5.013-.689-11.02-.727-12.257a.618.618,0,0,0-.2-.44c-.914-.85-5.616-4.009-25.478-4.718-22.806-.815-39.557,1.4-51.851,4.439a.622.622,0,0,0-.434.38c-1.771,4.537-4.11,11.143-5.031,13.764a.628.628,0,0,0,.755.816c4.808-1.285,23.49-5.888,33.376-2.7a.622.622,0,0,1,.4.4C533.589,528.055,538.5,544.905,538.613,551.484Z" transform="translate(-495.831 -500.043)" fill="none" stroke="#77eedf" stroke-miterlimit="10" stroke-width="1"/>
          <path id="Path_70" data-name="Path 70" d="M585.529,517.3l-.324.377H561.847a.627.627,0,0,1-.628-.569,76.39,76.39,0,0,1-.25-9.981c.262-5.337.306-4.725.306-4.725l.417-.69a.631.631,0,0,1,.9-.193Z" transform="translate(-520.208 -500.059)" fill="none" stroke="#77eedf" stroke-miterlimit="10" stroke-width="1"/>
          <path id="Path_71" data-name="Path 71" d="M585.83,500.608c-3.082-.772-13.951-2.4-22.8-.386a.634.634,0,0,0-.49.583,121.7,121.7,0,0,0-.011,14.806.635.635,0,0,0,.724.586,70.84,70.84,0,0,1,22.216.17.632.632,0,0,0,.737-.5c1.007-4.778.29-12.785.095-14.716A.619.619,0,0,0,585.83,500.608Z" transform="translate(-520.734 -499.253)" fill="none" stroke="#77eedf" stroke-miterlimit="10" stroke-width="1"/>
          <path id="Path_72" data-name="Path 72" d="M625.213,505.631a14.652,14.652,0,0,1,2.875,1.1.614.614,0,0,1,.313.455c.759,5.179.881,14.4.881,14.4l-.075.033c-.656-.144-2.046-.436-3.536-.672a.628.628,0,0,1-.534-.626c.044-5.4-.481-11.532-.72-14.03A.627.627,0,0,1,625.213,505.631Z" transform="translate(-544.002 -501.633)" fill="none" stroke="#77eedf" stroke-miterlimit="10" stroke-width="1"/>
          <path id="Path_73" data-name="Path 73" d="M623.88,505.274l.028.007c.151,1.451.86,8.671.809,14.92a.628.628,0,0,0,.534.626c1.49.236,2.88.529,3.536.672l-1.024.447a.627.627,0,0,1-.364.042c-.494-.09-1.868-.334-2.937-.465a.631.631,0,0,1-.551-.62c-.164-9.427-.516-13.631-.618-14.686a.625.625,0,0,1,.164-.485Z" transform="translate(-543.58 -501.509)" fill="none" stroke="#77eedf" stroke-miterlimit="10" stroke-width="1"/>
          <path id="Path_74" data-name="Path 74" d="M610.781,501.469a36.944,36.944,0,0,1,5.474,1.237.619.619,0,0,1,.406.444c1.049,4.363,1.489,12.326,1.607,14.863a.627.627,0,0,1-.717.651c-1.353-.2-3.787-.538-5.579-.714a.629.629,0,0,1-.563-.625,99.164,99.164,0,0,0-1.345-15.131A.627.627,0,0,1,610.781,501.469Z" transform="translate(-538.622 -500.08)" fill="none" stroke="#77eedf" stroke-miterlimit="10" stroke-width="1"/>
          <path id="Path_75" data-name="Path 75" d="M609.284,501.257l.056.008a98.364,98.364,0,0,1,1.5,15.984.629.629,0,0,0,.563.625c2.211.218,5.4.686,6.329.825l0,.041-.664.669a.623.623,0,0,1-.524.182c-.831-.106-3.273-.4-6.114-.531a.649.649,0,0,1-.6-.617,113.368,113.368,0,0,0-1.288-15.752.619.619,0,0,1,.1-.458Z" transform="translate(-538.049 -500.004)" fill="none" stroke="#77eedf" stroke-miterlimit="10" stroke-width="1"/>
          <path id="Path_76" data-name="Path 76" d="M522.811,517.412l-.1-.075s.513-10.437,2.21-15.671a.618.618,0,0,1,.439-.411,71.66,71.66,0,0,1,8.708-1.4l.023.025a89.968,89.968,0,0,0-2.469,16.14.627.627,0,0,1-.581.585C528.124,516.824,524.034,517.275,522.811,517.412Z" transform="translate(-505.901 -499.479)" fill="none" stroke="#77eedf" stroke-miterlimit="10" stroke-width="1"/>
          <path id="Path_77" data-name="Path 77" d="M531.681,516.306a96.365,96.365,0,0,1,2.251-15.362.443.443,0,0,1,.758-.179l.29.323a.47.47,0,0,1,.139.476c-.348,1.091-1.758,6.039-2.158,15.746a.63.63,0,0,1-.613.609c-2.169.042-7.025.472-8.152.574a.623.623,0,0,1-.432-.124l-.894-.671c1.224-.138,5.314-.588,8.229-.807A.627.627,0,0,0,531.681,516.306Z" transform="translate(-505.961 -499.764)" fill="none" stroke="#77eedf" stroke-miterlimit="10" stroke-width="1"/>
          <path id="Path_78" data-name="Path 78" d="M507.642,519.806l-.019-.012s.2-9.982,1.542-15.038a.618.618,0,0,1,.42-.435,51.348,51.348,0,0,1,6.494-1.37.626.626,0,0,1,.709.752,89.2,89.2,0,0,0-1.483,14.3.63.63,0,0,1-.617.617A36.653,36.653,0,0,0,507.642,519.806Z" transform="translate(-500.249 -500.636)" fill="none" stroke="#77eedf" stroke-miterlimit="10" stroke-width="1"/>
          <path id="Path_79" data-name="Path 79" d="M514.7,518.542a.63.63,0,0,0,.617-.617A84.443,84.443,0,0,1,517,502.737l.085-.012.734.855a.622.622,0,0,1,.131.573c-.317,1.153-1.351,5.577-1.465,14.553a.63.63,0,0,1-.57.625c-1.844.156-5.695.949-6.694,1.158a.618.618,0,0,1-.455-.081l-1.115-.685A36.643,36.643,0,0,1,514.7,518.542Z" transform="translate(-500.26 -500.554)" fill="none" stroke="#77eedf" stroke-miterlimit="10" stroke-width="1"/>
        </g>
        <path id="Path_80" data-name="Path 80" d="M574.687,230.63a.63.63,0,0,1-.163,1.238,31.09,31.09,0,0,0-12.377,2.324c.667-.815,3.708-1.669,6.4-2.288a.631.631,0,0,0-.154-1.246,18.5,18.5,0,0,0-7.3,1.5.629.629,0,0,1-.676-1.048l.056-.046a.443.443,0,0,0-.485-.737,21.858,21.858,0,0,0-5.559,4.186.629.629,0,0,1-1.08-.548c.159-.785.273-1.441.349-1.924a.627.627,0,0,0-.788-.7,10.4,10.4,0,0,0-2.984,1.377.631.631,0,0,1-.811-.959,20.4,20.4,0,0,1,7.877-5.077.3.3,0,0,1,.29.52l-.962.787a.3.3,0,0,0,.253.526c2.447-.518,8.014-1.573,11.4-1.256l-.161.009a.631.631,0,0,0-.091,1.246c2.511.56,6.308,1.411,8.573,1.934l-2.773-.139Z" transform="translate(-457.084 -223.584)" fill="none" stroke="#77eedf" stroke-miterlimit="10" stroke-width="1"/>
        <path id="Path_81" data-name="Path 81" d="M549.424,224.813c5.326-2.68,13.81-1.895,13.81-1.895l-2.219.832,7.627.971-2.912.694,5.051-.133a.628.628,0,0,1,.395.126l2.085,1.563a.631.631,0,0,0,.817-.96,12.374,12.374,0,0,0-3.529-2.646C567.657,222.257,556.257,219.7,549.424,224.813Zm26.823,7.693-.421.136a.631.631,0,0,0-.327.957l2.851,4.147a.63.63,0,0,0,1.069-.052c.041-.073.081-.144.123-.212a.585.585,0,0,0,.047-.517,12.091,12.091,0,0,0-2.721-4.323A.623.623,0,0,0,576.248,232.506Zm-36.863,6.525a30.432,30.432,0,0,0,.585-7.993.621.621,0,0,1,.271-.563,102.764,102.764,0,0,1,9.183-5.662c-5.758,1.3-9.59,4.289-10.55,5.508-.488.62-.675,4.708-.741,8.58A.632.632,0,0,0,539.385,239.031Z" transform="translate(-453.04 -221.739)" fill="none" stroke="#77eedf" stroke-miterlimit="10" stroke-width="1"/>
        <path id="Path_82" data-name="Path 82" d="M484,311.286c1.448-2.372,2.939-3.546,4.963-2.66a.638.638,0,0,0,.684-.123c2.307-2.132,4.06-5.277,6.69-4.57a.629.629,0,0,0,.558-.111c3.281-2.565,14.247-3.036,14.783-1.072.508,1.864-3.68,5.762,3.493,10.393a.629.629,0,0,1-.3,1.161c-6.236.3-17.517,2.47-19.118,2.782a.618.618,0,0,1-.369-.04l-11.1-4.848A.633.633,0,0,1,484,311.286Z" transform="translate(-432.724 -251.634)" fill="none" stroke="#77eedf" stroke-miterlimit="10" stroke-width="1"/>
        <path id="Path_83" data-name="Path 83" d="M493.4,307.217c1.005-1.221,4.07-2.265,5.145-2.6a.622.622,0,0,1,.64.164,38.881,38.881,0,0,0,8.083,6.523.631.631,0,0,0,.836-.891c-2.082-3.434-1.515-6.854,2.709-6.022a.633.633,0,0,0,.729-.473,2.358,2.358,0,0,0,.081-1.165c-.536-1.964-11.5-1.493-14.783,1.072a.629.629,0,0,1-.558.111c-2.638-.709-4.394,2.46-6.713,4.592a.628.628,0,0,1-.679.093c-2.07-.894-3.581.37-5.062,2.865a.443.443,0,0,0,.206.629l.306.134a.458.458,0,0,0,.62-.183c.841-1.62,1.775-3.065,3.793-2.392,1.368.456,4.229,1.718,6.66,2.824a.63.63,0,0,0,.691-1.034C494.381,309.828,492.776,307.976,493.4,307.217Z" transform="translate(-432.673 -251.634)" fill="none" stroke="#77eedf" stroke-miterlimit="10" stroke-width="1"/>
        <path id="Path_84" data-name="Path 84" d="M540.689,325.507a.63.63,0,0,1-.965.777c-1.388-1.175-3.638-2.037-7.924-2.35-5.722-.419-18.005-.837-19.96-.419s-13.538,2.233-16.191,3.211c3.768-2.373,14.377-4.048,16.47-4.467s14.656,0,21.635.7C538.216,323.4,540.053,324.362,540.689,325.507Z" transform="translate(-437.124 -259.334)" fill="none" stroke="#77eedf" stroke-miterlimit="10" stroke-width="1"/>
        <path id="Path_85" data-name="Path 85" d="M571.757,328.593c.977-1.954,4.326-3.49,11.166-2.094s6.56,1.4,6.142,1.4S577.061,325.243,571.757,328.593Z" transform="translate(-465.636 -260.783)" fill="none" stroke="#77eedf" stroke-miterlimit="10" stroke-width="1"/>
        <path id="Path_86" data-name="Path 86" d="M677.312,850.494c-.91-1.169-14.609-4.31-18.041.16-1.317,1.715-1.486,6.665.291,7.808s17.158.633,18.174,0S678.2,851.637,677.312,850.494Z" transform="translate(-498.04 -456.475)" fill="none" stroke="#77eedf" stroke-miterlimit="10" stroke-width="1"/>
        <path id="Path_87" data-name="Path 87" d="M465.4,854.652c-1.238-1.548-5.468-3.714-10.42-3.714s-9.919,2-10.642,3.136-.1,6.294.722,6.81,19.1,1.2,20.03.268S466,855.395,465.4,854.652Z" transform="translate(-417.783 -457.453)" fill="none" stroke="#77eedf" stroke-miterlimit="10" stroke-width="1"/>
      </g>
    </g>
  </g>
</svg>
